<svg xmlns="http://www.w3.org/2000/svg" viewBox="0 0 337.21 139.7"><defs><style>.cls-1{fill:#010101;}.cls-2{fill:#020202;}.cls-3{fill:#030303;}.cls-4{fill:#5675b9;}.cls-5{fill:#ed1e25;}.cls-6{fill:#52ba5e;}</style></defs><g id="Layer_2" data-name="Layer 2"><g id="Layer_1-2" data-name="Layer 1"><polygon class="cls-1" points="250.74 107.89 238.23 107.89 223.17 49.95 223.2 107.89 210.75 107.89 210.75 31.24 230.75 31.2 244.23 84.4 257.29 31.2 277.54 31.2 277.54 108.06 265.12 108.06 265.09 49.62 250.74 107.89"/><path class="cls-1" d="M307.8,109.26c-7.82-.05-14.33-4.44-18.63-10.9C286.27,94,284,83.63,284,83.63l13.37-2s1.65,6.94,3.46,9.62c2.58,3.82,6.86,5.58,12.23,5,5.94-.7,9.55-3.38,10.2-7.59,1.05-6.75-1.13-9.49-9.94-12.33-3-1-6.17-1.8-9.18-2.81-9.68-3.24-15.73-8.45-17.18-16-1.1-5.68-.79-11.37,2.14-16.8,5.37-10,18.13-12.51,29.8-9.5,6.58,1.7,10.08,5.57,12.62,9.89a43.64,43.64,0,0,1,3.73,11.09l-13.44,1.71a50.06,50.06,0,0,0-1.56-5.52c-1.58-3.6-5.12-5.48-10.18-5.6-4.48-.1-8.14,1.51-9.72,4.27-1.9,3.32-.63,7.25,3,9.48,3.08,1.88,6.83,2.86,10.53,3.9a70.26,70.26,0,0,1,9.24,3.17c6.18,2.72,10.6,6.53,12.36,11.53,2.39,7.42,2.38,14.77-1.19,22.06C330.63,104.77,321.75,109.27,307.8,109.26Z"/><polygon class="cls-1" points="183.57 94.9 183.57 107.89 140.51 107.89 140.46 31.21 153.87 31.22 153.9 94.93 183.57 94.9"/><polygon class="cls-2" points="188.51 52.42 201.36 52.43 201.36 107.89 188.55 107.89 188.51 52.42"/><rect class="cls-3" x="188.57" y="31.22" width="12.74" height="13.63"/><polygon class="cls-4" points="59.4 64.61 5.43 31.71 59.4 0 113.37 31.71 59.4 64.61"/><polygon class="cls-5" points="66.22 75.78 118.24 43.78 118.25 107.54 66.22 139.7 66.22 75.78"/><polygon class="cls-6" points="52.03 75.78 0.01 43.78 0 107.54 52.03 139.7 52.03 75.78"/></g></g></svg>