<svg id="Layer_1" data-name="Layer 1" xmlns="http://www.w3.org/2000/svg" viewBox="0 0 337.21 139.7"><defs><style>.cls-1{fill:#fff;}.cls-2{fill:#5675b9;}.cls-3{fill:#ed1e25;}.cls-4{fill:#52ba5e;}</style></defs><polygon class="cls-1" points="250.74 107.89 238.23 107.89 223.17 49.95 223.2 107.89 210.75 107.89 210.75 31.24 230.75 31.2 244.23 84.4 257.29 31.2 277.54 31.2 277.54 108.06 265.12 108.06 265.09 49.62 250.74 107.89"/><path class="cls-1" d="M429.59,367.31c-7.81-.05-14.33-4.44-18.63-10.9-2.9-4.35-5.13-14.73-5.13-14.73l13.37-2s1.65,6.94,3.46,9.62c2.58,3.82,6.86,5.58,12.23,4.95,5.94-.7,9.55-3.38,10.2-7.59,1.05-6.75-1.13-9.49-9.94-12.33-3-1-6.17-1.81-9.18-2.81-9.68-3.24-15.73-8.45-17.18-16-1.1-5.68-.79-11.37,2.14-16.8,5.37-10,18.13-12.51,29.8-9.5,6.58,1.7,10.08,5.56,12.62,9.89a43.85,43.85,0,0,1,3.74,11.09l-13.45,1.7a50.06,50.06,0,0,0-1.56-5.51c-1.58-3.6-5.12-5.49-10.18-5.6-4.48-.1-8.14,1.51-9.72,4.27-1.9,3.32-.63,7.24,3,9.48,3.08,1.88,6.83,2.85,10.53,3.9a71.72,71.72,0,0,1,9.24,3.16c6.18,2.72,10.61,6.54,12.36,11.54,2.39,7.42,2.38,14.77-1.19,22.06C452.43,362.81,443.54,367.31,429.59,367.31Z" transform="translate(-121.79 -258.05)"/><polygon class="cls-1" points="183.57 94.9 183.57 107.89 140.51 107.89 140.46 31.21 153.87 31.22 153.9 94.93 183.57 94.9"/><polygon class="cls-1" points="188.51 52.42 201.36 52.43 201.36 107.89 188.55 107.89 188.51 52.42"/><rect class="cls-1" x="188.57" y="31.22" width="12.74" height="13.63"/><polygon class="cls-2" points="59.4 64.61 5.43 31.71 59.4 0 113.37 31.71 59.4 64.61"/><polygon class="cls-3" points="66.22 75.78 118.24 43.78 118.25 107.54 66.22 139.7 66.22 75.78"/><polygon class="cls-4" points="52.03 75.78 0.01 43.78 0 107.54 52.03 139.7 52.03 75.78"/></svg>